<svg xmlns="http://www.w3.org/2000/svg" width="80" height="93.12" viewBox="0 0 80 93.12">
  <g id="beauty" transform="translate(7557 -14395)">
    <path id="Path_108" data-name="Path 108" d="M98.321,149.676a1.365,1.365,0,0,0-1.847.558,22.082,22.082,0,0,1-1.993,3.071,12.735,12.735,0,0,0-6.956-4.464l-6.76-1.67v-5.628a25.744,25.744,0,0,0,5.9-4.8,1.365,1.365,0,1,0-2.012-1.844c-3.8,4.145-8.918,6.719-13.361,6.719a15.394,15.394,0,0,1-7.147-1.845,1.36,1.36,0,0,0-.657-.361,25.739,25.739,0,0,1-10.819-13.48c7.693-1.522,13.98-5.89,18-9.4a47.126,47.126,0,0,0,8.618-9.907c1.207,7.233,4.578,14.142,11.333,16.912a26.15,26.15,0,0,1-2.8,7.05,1.364,1.364,0,1,0,2.361,1.368,28.844,28.844,0,0,0,3.047-7.607,17.94,17.94,0,0,0,2.013.333,1.364,1.364,0,0,0,.292-2.713,14.422,14.422,0,0,1-3.516-.814h0q-.233-.087-.46-.182h0c-4.359-1.821-6.96-5.725-8.454-10.227l-.023-.069a31.782,31.782,0,0,1-1.512-8.746,1.365,1.365,0,0,0-2.636-.5c-3.176,8.1-15.166,20.216-28.215,22.075l-.03.006a25.077,25.077,0,0,1-3.478.247,1.364,1.364,0,0,0,0,2.729,27.128,27.128,0,0,0,2.723-.139A27.454,27.454,0,0,0,58.618,139.3a24.69,24.69,0,0,0,3.2,2.235v5.62l-6.845,1.691a12.809,12.809,0,0,0-2.383.845v-8.405c0-2.362-2.878-4.862-5.342-6.284a14.707,14.707,0,0,0-5.02-1.874c-2.63-.38-3.664.67-4.048,1.334a2.559,2.559,0,0,0-.335,1.292v17.52a3.154,3.154,0,0,0-1.8,2.844V162.5a1.364,1.364,0,0,0,2.729,0v-1.415H51.665v11.17a.424.424,0,0,1-.424.424H39.2a.424.424,0,0,1-.424-.424v-4.3a1.364,1.364,0,0,0-2.729,0v4.3a3.156,3.156,0,0,0,3.153,3.153h12.04a3.156,3.156,0,0,0,3.153-3.153v-3.681H96.264a1.364,1.364,0,0,0,1.362-1.45L97.2,160.43a12.807,12.807,0,0,0-1.2-4.666,24.782,24.782,0,0,0,2.875-4.24A1.366,1.366,0,0,0,98.321,149.676ZM49.854,141.2c-.543.2-2.59.043-5.3-1.523-2.634-1.521-3.849-3.194-3.966-3.835C42.931,134.983,49.529,139.289,49.854,141.2Zm-9.277-1.01a17.209,17.209,0,0,0,2.611,1.85c1.87,1.08,4.552,2.156,6.677,1.922v9H40.576Zm11.088,18.169H38.776v-2.242a.424.424,0,0,1,.424-.424H51.24a.424.424,0,0,1,.424.424Zm2.729,7.489v-6.118s0,0,0-.007,0,0,0-.007v-3.6a3.153,3.153,0,0,0-1.8-2.843v-.465a10,10,0,0,1,3.038-1.315l7.27-1.8a2.164,2.164,0,0,0,1.648-2.105v-4.7a16.488,16.488,0,0,0,13.486.013v4.7a2.166,2.166,0,0,0,1.649,2.105l7.186,1.776a10,10,0,0,1,6.246,4.644,1.353,1.353,0,0,0,.128.224,10.052,10.052,0,0,1,1.235,4.243l.331,5.243Z" transform="translate(-7593.048 14312.713)" fill="#252525"/>
    <g id="Group_66" data-name="Group 66" transform="translate(-7552.272 14395)">
      <g id="Group_65" data-name="Group 65" transform="translate(0)">
        <path id="Path_109" data-name="Path 109" d="M124.609,12.311c-3.194-.867-4.186-1.859-5.052-5.055a2.133,2.133,0,0,0-4.118,0,11.08,11.08,0,0,1-.813,2.215q-.256-.269-.518-.532A30.5,30.5,0,0,0,62.036,30.518V46.946a1.364,1.364,0,1,0,2.728,0V30.518a27.772,27.772,0,0,1,47.415-19.649c.185.185.366.373.546.563a10.645,10.645,0,0,1-2.339.879,2.135,2.135,0,0,0,0,4.12c3.194.867,4.186,1.859,5.053,5.056a2.137,2.137,0,0,0,3.655.859,27.673,27.673,0,0,1,1.221,8.171V42.671a1.364,1.364,0,1,0,2.728,0V30.518a30.288,30.288,0,0,0-2.358-11.778c.751-1.112,1.859-1.748,3.924-2.309h0a2.135,2.135,0,0,0,0-4.12Zm-6.661,5.7-.009.018,0,.008a10.648,10.648,0,0,0-.439.975,7.561,7.561,0,0,0-4.642-4.643A8.128,8.128,0,0,0,115.7,12.6l.014-.015.019-.02A8.164,8.164,0,0,0,117.5,9.725a7.56,7.56,0,0,0,4.635,4.642A7.432,7.432,0,0,0,117.949,18.015Z" transform="translate(-62.036)" fill="#252525"/>
      </g>
    </g>
    <g id="Group_68" data-name="Group 68" transform="translate(-7502.914 14439.748)">
      <g id="Group_67" data-name="Group 67" transform="translate(0 0)">
        <path id="Path_110" data-name="Path 110" d="M359.1,278.51,353.819,264a2.7,2.7,0,0,0-.717-1.072L354.57,251.4a4.681,4.681,0,0,0-6.244-4.99l-3.388,1.233-.01,0-4.933,1.8-.009,0-3.389,1.233a4.681,4.681,0,0,0-1.576,7.836l8.537,7.89a2.7,2.7,0,0,0,.14,1.282l1.606,4.411v0h0l3.675,10.1A5.385,5.385,0,1,0,359.1,278.51Zm-13.859-14.268-8.37-7.735a1.952,1.952,0,0,1,.657-3.268l1.011-.368a8.673,8.673,0,0,0,1.256,3.543l1.539,2.44a1.364,1.364,0,1,0,2.308-1.456l-1.539-2.44a5.472,5.472,0,0,1-.867-3.069l4.315-1.571a5.471,5.471,0,0,1,1.308,2.909l.39,2.858a1.364,1.364,0,0,0,2.7-.368l-.39-2.858a8.677,8.677,0,0,0-1.315-3.522c.517-.07,1.686-1.026,2.9-.059a1.912,1.912,0,0,1,.717,1.771l-1.439,11.305c-.026.009-.052.015-.077.024l-5.03,1.831C345.291,264.22,345.267,264.232,345.242,264.242Zm1.25,3.139,4.993-1.817.91,2.5-4.993,1.817Zm6.425,15.379a2.639,2.639,0,0,1-1.374-1.5l-3.208-8.815,4.993-1.817,3.209,8.815A2.659,2.659,0,0,1,352.917,282.76Z" transform="translate(-333.514 -246.119)" fill="#c20ad8"/>
      </g>
    </g>
    <g id="Group_63" data-name="Group 63" transform="translate(-7557 14445.756)">
      <path id="Path_108-2" data-name="Path 108" d="M52.594,295.786V287.38c0-2.362-2.878-4.862-5.342-6.284a14.706,14.706,0,0,0-5.02-1.874c-2.63-.38-3.664.67-4.048,1.334a2.559,2.559,0,0,0-.335,1.292v17.521a3.154,3.154,0,0,0-1.8,2.844V308.6a1.364,1.364,0,0,0,2.729,0v-1.415H51.665v11.17a.424.424,0,0,1-.424.424H39.2a.424.424,0,0,1-.424-.424v-4.3a1.364,1.364,0,0,0-2.729,0v4.3a3.156,3.156,0,0,0,3.153,3.153h12.04a3.156,3.156,0,0,0,3.153-3.153v-3.681l-1.8-15.3Zm-2.74-8.492c-.543.2-2.59.043-5.3-1.523-2.634-1.521-3.849-3.194-3.966-3.835C42.931,281.081,49.529,285.387,49.854,287.294Zm-9.277-1.01a17.206,17.206,0,0,0,2.611,1.85c1.87,1.08,4.552,2.156,6.677,1.922v9H40.576Zm11.088,18.169H38.776v-2.242a.424.424,0,0,1,.424-.424H51.24a.424.424,0,0,1,.424.424Zm2.729,7.489v-6.118s0,0,0-.007,0,0,0-.007v-3.6a3.154,3.154,0,0,0-1.8-2.843l.2,2.42,1.6,12.983Z" transform="translate(-36.048 -279.141)" fill="#c20ad8"/>
    </g>
    <g id="Group_66-2" data-name="Group 66" transform="translate(-7505.504 14400.682)">
      <g id="Group_65-2" data-name="Group 65" transform="translate(0 0)">
        <path id="Path_109-2" data-name="Path 109" d="M335.082,37.86c-3.2-.867-4.188-1.859-5.055-5.055a2.135,2.135,0,0,0-4.12,0,11.074,11.074,0,0,1-.813,2.215,4.223,4.223,0,0,1-1.9,1.96,10.655,10.655,0,0,1-2.34.879,2.135,2.135,0,0,0,0,4.12c3.2.867,4.188,1.859,5.055,5.056a2.139,2.139,0,0,0,3.657.859c.9-.664,1.592-3.607,1.592-3.607.751-1.112,1.86-1.748,3.926-2.309h0a2.135,2.135,0,0,0,0-4.12Zm-6.664,5.7-.009.018,0,.008a10.653,10.653,0,0,0-.44.975,7.563,7.563,0,0,0-4.644-4.643,8.132,8.132,0,0,0,2.844-1.777l.014-.015.019-.02a8.164,8.164,0,0,0,1.769-2.835,7.562,7.562,0,0,0,4.637,4.642A7.434,7.434,0,0,0,328.418,43.563Z" transform="translate(-319.277 -31.23)" fill="#c20ad8"/>
      </g>
    </g>
  </g>
</svg>
