<svg xmlns="http://www.w3.org/2000/svg" width="25.454" height="25.454" viewBox="0 0 25.454 25.454">
  <g id="browsers" transform="translate(0.5 0.5)">
    <g id="Web">
      <path id="Path_198" data-name="Path 198" d="M24.454,12.227A12.227,12.227,0,1,0,12.227,24.454,12.227,12.227,0,0,0,24.454,12.227Zm-6.292,7.029A18.235,18.235,0,0,0,19.481,12.6h4.2a11.42,11.42,0,0,1-3.207,7.572,17.478,17.478,0,0,0-2.312-.921Zm-14.181.921A11.42,11.42,0,0,1,.774,12.6h4.2a18.235,18.235,0,0,0,1.319,6.651,17.477,17.477,0,0,0-2.312.921Zm0-15.9A17.478,17.478,0,0,0,6.292,5.2,18.23,18.23,0,0,0,4.973,11.84H.774A11.42,11.42,0,0,1,3.981,4.277Zm16.493,0A11.42,11.42,0,0,1,23.68,11.84h-4.2A18.23,18.23,0,0,0,18.162,5.2a17.478,17.478,0,0,0,2.312-.921ZM18.717,11.84H12.609V6.1a19.619,19.619,0,0,0,4.837-.69,17.639,17.639,0,0,1,1.271,6.428Zm-6.108-6.5V.786c1.8.185,3.4,1.667,4.514,3.922a18.871,18.871,0,0,1-4.514.631ZM11.845.786V5.339A18.871,18.871,0,0,1,7.33,4.708C8.444,2.453,10.047.971,11.845.786Zm0,5.317V11.84H5.737A17.639,17.639,0,0,1,7.008,5.413a19.619,19.619,0,0,0,4.837.69ZM5.737,12.6h6.108v5.747a19.619,19.619,0,0,0-4.837.69A17.643,17.643,0,0,1,5.737,12.6Zm6.108,6.511v4.553c-1.8-.185-3.4-1.667-4.514-3.922a18.871,18.871,0,0,1,4.514-.631Zm.764,4.553V19.115a18.871,18.871,0,0,1,4.514.631C16.01,22,14.407,23.484,12.609,23.668Zm0-5.317V12.6h6.108a17.643,17.643,0,0,1-1.271,6.437,19.619,19.619,0,0,0-4.837-.69ZM19.887,3.708a16.823,16.823,0,0,1-2.04.789,9.619,9.619,0,0,0-2.478-3.292,11.455,11.455,0,0,1,4.518,2.5ZM6.607,4.5a16.822,16.822,0,0,1-2.04-.789,11.455,11.455,0,0,1,4.518-2.5A9.619,9.619,0,0,0,6.607,4.5ZM4.567,20.746a16.823,16.823,0,0,1,2.04-.789,9.619,9.619,0,0,0,2.478,3.292,11.455,11.455,0,0,1-4.518-2.5Zm13.281-.789a16.823,16.823,0,0,1,2.04.789,11.455,11.455,0,0,1-4.518,2.5,9.619,9.619,0,0,0,2.478-3.292Z" fill="#252525" stroke="#252525" stroke-width="1"/>
    </g>
  </g>
</svg>
