<svg xmlns="http://www.w3.org/2000/svg" width="17.709" height="24.454" viewBox="0 0 17.709 24.454">
  <g id="button-clicks" transform="translate(-70.612)">
    <g id="Group_142" data-name="Group 142" transform="translate(70.612)">
      <path id="Path_189" data-name="Path 189" d="M86.225,82.849a2.085,2.085,0,0,0-.751.14,2.095,2.095,0,0,0-2.782-1.351,2.094,2.094,0,0,0-2.651-1.323V78.1a2.1,2.1,0,0,0-4.193,0v9.068l-.819-1.215-.019-.024a2.471,2.471,0,0,0-3.97,2.936l3.649,5.752.014.022a5.042,5.042,0,0,0,4.158,2.188h4.1a5.371,5.371,0,0,0,5.365-5.365V84.945A2.1,2.1,0,0,0,86.225,82.849Zm.664,8.609a3.937,3.937,0,0,1-3.932,3.932h-4.1a3.61,3.61,0,0,1-2.969-1.556l-3.648-5.751-.014-.022A1.038,1.038,0,0,1,73.877,86.8l3.4,5.053V78.1a.664.664,0,0,1,1.327,0v7.159h1.433V82.3a.664.664,0,0,1,1.327,0v2.952H82.8V83.586a.664.664,0,0,1,1.327,0v1.669h1.433v-.309a.664.664,0,1,1,1.327,0v6.513Z" transform="translate(-70.612 -72.369)" fill="#252525"/>
      <rect id="Rectangle_64" data-name="Rectangle 64" width="1.433" height="1.982" transform="translate(6.575)" fill="#c20ad8"/>
      <rect id="Rectangle_65" data-name="Rectangle 65" width="1.982" height="1.433" transform="translate(8.927 2.311) rotate(-47.655)" fill="#c20ad8"/>
      <rect id="Rectangle_66" data-name="Rectangle 66" width="1.982" height="1.433" transform="matrix(0.996, -0.093, 0.093, 0.996, 10.444, 4.137)" fill="#c20ad8"/>
      <rect id="Rectangle_67" data-name="Rectangle 67" width="1.433" height="1.982" transform="translate(3.218 1.811) rotate(-42.345)" fill="#c20ad8"/>
      <rect id="Rectangle_68" data-name="Rectangle 68" width="1.433" height="1.982" transform="matrix(0.093, -0.996, 0.996, 0.093, 1.99, 5.381)" fill="#c20ad8"/>
    </g>
  </g>
</svg>
