<svg xmlns="http://www.w3.org/2000/svg" width="25.454" height="25.454" viewBox="0 0 25.454 25.454">
  <g id="countries" transform="translate(0.5 0.5)">
    <g id="Group_149" data-name="Group 149">
      <g id="Group_148" data-name="Group 148">
        <path id="Path_193" data-name="Path 193" d="M12.227,0A12.227,12.227,0,1,0,24.454,12.227,12.227,12.227,0,0,0,12.227,0Zm0,23.551A11.324,11.324,0,1,1,23.551,12.227,11.324,11.324,0,0,1,12.227,23.551Z" fill="#252525" stroke="#252525" stroke-width="1"/>
      </g>
    </g>
    <g id="Group_151" data-name="Group 151" transform="translate(2.694 8.1)">
      <g id="Group_150" data-name="Group 150">
        <path id="Path_194" data-name="Path 194" d="M59.507,149.218a4.163,4.163,0,0,0-.831-.876c-.452-.384-.763-.641-1.02-2.908-.108-.948-.316-1.914-1.034-1.914s-1.156,1.029-1.467,1.905a.855.855,0,0,1-.135.181,1.453,1.453,0,0,1-.244-.452l-.095-.226-.239-.045a2.8,2.8,0,0,0-.5-.041,2.578,2.578,0,0,0-2.086,1,.8.8,0,0,1-.479.117.618.618,0,0,0-.23-.045c-.452,0-.6.415-.7.686-.181.452-.289.623-.591.623a2.154,2.154,0,0,0-1.806.858A1.951,1.951,0,0,0,47.9,149.9l.1.257a6.493,6.493,0,0,1,.578,2.542,1.079,1.079,0,0,0,1.042,1.115h.073a4.456,4.456,0,0,0,2.786-1.671.966.966,0,0,1,.731-.4,1.5,1.5,0,0,1,1.088.7,4.185,4.185,0,0,0,2.962,1.635,1.806,1.806,0,0,0,.808-.181,3.815,3.815,0,0,0,1.765-2.4A2.754,2.754,0,0,0,59.507,149.218Zm-.555,2.041,0,.018a2.958,2.958,0,0,1-1.3,1.806.9.9,0,0,1-.406.086,3.5,3.5,0,0,1-2.145-1.115,2.357,2.357,0,0,0-1.892-1.21,1.833,1.833,0,0,0-1.418.727,3.644,3.644,0,0,1-2.1,1.355c-.113,0-.194,0-.212-.271a7.4,7.4,0,0,0-.637-2.808l-.1-.257a1.066,1.066,0,0,1,.045-1.011,1.26,1.26,0,0,1,1.057-.452,1.544,1.544,0,0,0,1.431-1.206v-.059a1.923,1.923,0,0,0,1.111-.312l.068-.045.05-.068a1.653,1.653,0,0,1,1.418-.655h.108a1.178,1.178,0,0,0,.98.754c.578,0,.9-.619.962-.74v-.045a5.418,5.418,0,0,1,.569-1.192,4.721,4.721,0,0,1,.19.984c.284,2.5.7,2.957,1.355,3.495a3.283,3.283,0,0,1,.659.7A1.883,1.883,0,0,1,58.951,151.259Z" transform="translate(-47.739 -143.52)" fill="#c20ad8"/>
      </g>
    </g>
    <g id="Group_153" data-name="Group 153" transform="translate(8.354 18.665)">
      <g id="Group_152" data-name="Group 152">
        <path id="Path_195" data-name="Path 195" d="M150.243,331.047l-.077-.145L150,330.84a2.258,2.258,0,0,0-.727-.126,1.242,1.242,0,0,0-.9.357,1.427,1.427,0,0,0-.343,1.088c.032.79.519,1.07.9,1.07a1.544,1.544,0,0,0,1.21-.763A1.418,1.418,0,0,0,150.243,331.047Zm-.867.935a.731.731,0,0,1-.452.339.559.559,0,0,1-.036-.2.619.619,0,0,1,.09-.429.4.4,0,0,1,.271-.077,1.2,1.2,0,0,1,.208,0,.614.614,0,0,1-.086.37Z" transform="translate(-148.018 -330.713)" fill="#c20ad8"/>
      </g>
    </g>
    <g id="Group_155" data-name="Group 155" transform="translate(6.867 2.659)">
      <g id="Group_154" data-name="Group 154">
        <path id="Path_196" data-name="Path 196" d="M129.622,50.479c-.221-.605-1.061-.885-1.616-1.016a1.486,1.486,0,0,0-.316-.736,2.666,2.666,0,0,0-2.154-.781,3.377,3.377,0,0,0-1.96-.826,1.883,1.883,0,0,0-1.544.822,1.309,1.309,0,0,0-.271,1.4c.339.709,1.409.9,1.937.957a2.014,2.014,0,0,0,1.589,1.048,1.63,1.63,0,0,0,.754-.194,3.591,3.591,0,0,0,2.113,1.011,1.513,1.513,0,0,0,1.16-.528A1.1,1.1,0,0,0,129.622,50.479Zm-.975.564V51.03a.61.61,0,0,1-.483.226,3.176,3.176,0,0,1-1.729-.989.452.452,0,0,0-.6-.045.9.9,0,0,1-.537.221c-.524,0-.9-.763-.9-.768a.452.452,0,0,0-.388-.257c-.578-.027-1.3-.221-1.418-.452-.041-.09.027-.266.181-.452a.98.98,0,0,1,.817-.452,2.623,2.623,0,0,1,1.481.7.452.452,0,0,0,.316.122h.086a1.934,1.934,0,0,1,1.513.452.609.609,0,0,1,.135.452.452.452,0,0,0,.357.51c.582.077,1.224.325,1.287.5C128.787,50.818,128.778,50.895,128.647,51.044Z" transform="translate(-121.666 -47.12)" fill="#c20ad8"/>
      </g>
    </g>
    <g id="Group_157" data-name="Group 157" transform="translate(16.114 14.914)">
      <g id="Group_156" data-name="Group 156">
        <path id="Path_197" data-name="Path 197" d="M290.574,265.143c-.244-.754-.641-.9-.93-.9a1.3,1.3,0,0,0-1,.736,8.186,8.186,0,0,1-1.043,1.061H286.8a.452.452,0,0,0-.454.449.473.473,0,0,0,0,.047l.09.876-.786.79a.452.452,0,0,0-.131.33,1.2,1.2,0,0,0,1.248,1.152h.021a2.459,2.459,0,0,0,.682-.108.451.451,0,0,0,.144-.072C288.2,269.049,291.1,266.759,290.574,265.143Zm-3.441,3.59a1.45,1.45,0,0,1-.348.05.361.361,0,0,1-.325-.135l.768-.772a.452.452,0,0,0,.131-.366l-.063-.591h.479a.452.452,0,0,0,.3-.113,9.452,9.452,0,0,0,1.35-1.364l0-.014a1.433,1.433,0,0,1,.19-.248,1.212,1.212,0,0,1,.1.248C289.947,266.154,288.358,267.807,287.134,268.733Z" transform="translate(-285.517 -264.24)" fill="#c20ad8"/>
      </g>
    </g>
  </g>
</svg>
