<svg xmlns="http://www.w3.org/2000/svg" width="25.983" height="24.454" viewBox="0 0 25.983 24.454">
  <g id="devices" transform="translate(0 -14.128)">
    <g id="Group_144" data-name="Group 144" transform="translate(0 14.128)">
      <path id="Path_190" data-name="Path 190" d="M11.19,31.385H2.123A.383.383,0,0,1,1.741,31V16.251a.383.383,0,0,1,.382-.382H23.859a.383.383,0,0,1,.382.382v3.231a3.912,3.912,0,0,1,1.74.627V16.251a2.125,2.125,0,0,0-2.123-2.123H2.123A2.125,2.125,0,0,0,0,16.251V31a2.126,2.126,0,0,0,2.123,2.123H9.409v2.846H8.26a1.305,1.305,0,1,0,0,2.611h3.665a3.912,3.912,0,0,1-.734-2.275V31.385Z" transform="translate(0 -14.128)" fill="#252525"/>
      <path id="Path_191" data-name="Path 191" d="M244.483,160.441v-1.88h-3.824v-12.01a.46.46,0,0,1,.459-.459h8.653a.459.459,0,0,1,.459.459v3.717h.652a2.147,2.147,0,0,1,1.089.3v-4.02a2.2,2.2,0,0,0-2.2-2.2h-8.653a2.2,2.2,0,0,0-2.2,2.2v12.931a2.2,2.2,0,0,0,2.2,2.2h3.758A2.3,2.3,0,0,1,244.483,160.441Z" transform="translate(-225.988 -137.303)" fill="#252525"/>
      <path id="Path_192" data-name="Path 192" d="M367.15,273.775h-4.221a1.091,1.091,0,0,0-1.09,1.09v8a1.091,1.091,0,0,0,1.09,1.09h4.221a1.091,1.091,0,0,0,1.089-1.09v-8A1.091,1.091,0,0,0,367.15,273.775Zm-4.005,1.305h3.789v6.911h-3.789Zm1.9,8.34a.468.468,0,1,1,.308-.123A.455.455,0,0,1,365.04,283.42Z" transform="translate(-342.256 -259.723)" fill="#c20ad8"/>
    </g>
  </g>
</svg>
