<svg xmlns="http://www.w3.org/2000/svg" xmlns:xlink="http://www.w3.org/1999/xlink" width="93.12" height="93.12" viewBox="0 0 93.12 93.12">
  <defs>
    <clipPath id="clip-path">
      <path id="path2983" d="M0-682.665H93.12v93.12H0Z" transform="translate(0 682.665)" fill="#252525"/>
    </clipPath>
  </defs>
  <g id="events" transform="translate(0 -0.002)">
    <g id="g2973" transform="translate(0 0.002)">
      <g id="g2975" transform="translate(20.716 63.676)">
        <path id="path2977" d="M-35.111,0l-5.546,20.7" transform="translate(40.657)" fill="none" stroke="#252525" stroke-linecap="round" stroke-linejoin="round" stroke-miterlimit="10" stroke-width="3"/>
      </g>
      <g id="g2979">
        <g id="g2981" clip-path="url(#clip-path)">
          <g id="g2987" transform="translate(11.189 82.719)">
            <path id="path2989" d="M-87.263-56.569l-11.585-3.1a2.966,2.966,0,0,1-2.1-3.632,2.966,2.966,0,0,1,3.632-2.1l11.584,3.1a2.966,2.966,0,0,1,2.1,3.632A2.966,2.966,0,0,1-87.263-56.569Z" transform="translate(101.046 65.504)" fill="none" stroke="#252525" stroke-linecap="round" stroke-linejoin="round" stroke-miterlimit="10" stroke-width="3"/>
          </g>
          <g id="g2991" transform="translate(21.558 41.263)">
            <path id="path2993" d="M-129.957-14.23c-3.369-.127-3.369-1.818-6.824-1.906-3.5-.088-3.542,1.645-7.041,1.556-3.4-.086-3.454-1.724-6.662-1.9" transform="translate(150.484 16.477)" fill="none" stroke="#252525" stroke-linecap="round" stroke-linejoin="round" stroke-miterlimit="10" stroke-width="3"/>
          </g>
          <g id="g2995" transform="translate(66.859 58.219)">
            <path id="path2997" d="M0,0,5.546,20.7" fill="none" stroke="#252525" stroke-linecap="round" stroke-linejoin="round" stroke-miterlimit="10" stroke-width="3"/>
          </g>
          <g id="g2999" transform="translate(64.414 77.263)">
            <path id="path3001" d="M-96.982-36.916l-11.585,3.1a2.966,2.966,0,0,1-3.632-2.1,2.966,2.966,0,0,1,2.1-3.632l11.584-3.1a2.966,2.966,0,0,1,3.632,2.1A2.965,2.965,0,0,1-96.982-36.916Z" transform="translate(112.301 42.748)" fill="none" stroke="#252525" stroke-linecap="round" stroke-linejoin="round" stroke-miterlimit="10" stroke-width="3"/>
          </g>
          <g id="g3003" transform="translate(51.579 32.844)">
            <path id="path3005" d="M-119.66,0c-2.981,1.574-3.827.11-6.863,1.762-3.074,1.673-2.246,3.2-5.32,4.868-2.986,1.625-3.853.234-6.718,1.687" transform="translate(138.561)" fill="none" stroke="#252525" stroke-linecap="round" stroke-linejoin="round" stroke-miterlimit="10" stroke-width="3"/>
          </g>
          <g id="g3007" transform="translate(39.959 1.364)">
            <path id="path3009" d="M-38.352-71.791-40.622-70.6a1.167,1.167,0,0,1-1.694-1.231l.434-2.529a1.168,1.168,0,0,0-.336-1.033l-1.837-1.791a1.167,1.167,0,0,1,.647-1.991l2.539-.369a1.168,1.168,0,0,0,.879-.639l1.135-2.3a1.168,1.168,0,0,1,2.094,0l1.135,2.3a1.168,1.168,0,0,0,.879.639l2.539.369a1.167,1.167,0,0,1,.647,1.991L-33.4-75.39a1.168,1.168,0,0,0-.336,1.033l.434,2.529A1.167,1.167,0,0,1-34.994-70.6l-2.271-1.194A1.168,1.168,0,0,0-38.352-71.791Z" transform="translate(44.409 83.131)" fill="none" stroke="#c20ad8" stroke-linecap="round" stroke-linejoin="round" stroke-miterlimit="10" stroke-width="3"/>
          </g>
          <g id="g3011" transform="translate(32.9 8.368)">
            <path id="path3013" d="M-27.686-39.009l-4.373-6.162" transform="translate(32.059 45.171)" fill="none" stroke="#c20ad8" stroke-linecap="round" stroke-linejoin="round" stroke-miterlimit="10" stroke-width="3"/>
          </g>
          <g id="g3015" transform="translate(25.765 17.041)">
            <path id="path3017" d="M-50.024-14.377l-7.9-2.271" transform="translate(57.925 16.648)" fill="none" stroke="#c20ad8" stroke-linecap="round" stroke-linejoin="round" stroke-miterlimit="10" stroke-width="3"/>
          </g>
          <g id="g3019" transform="translate(56.569 9.519)">
            <path id="path3021" d="M0-34.509,6.671-39.96" transform="translate(0 39.96)" fill="#c20ad8" stroke="#c20ad8" stroke-linecap="round" stroke-linejoin="round" stroke-miterlimit="10" stroke-width="3"/>
          </g>
          <g id="g3023" transform="translate(25.733 24.076)">
            <path id="path3025" d="M0-36.48l1.669-4.567A1.819,1.819,0,0,1,3.848-42.18l13.574,3.637a1.819,1.819,0,0,1,1.321,2.07l-4.375,25a11.064,11.064,0,0,1-2.457,5.262" transform="translate(0 42.242)" fill="none" stroke="#252525" stroke-linecap="round" stroke-linejoin="round" stroke-miterlimit="10" stroke-width="3"/>
          </g>
          <g id="g3027" transform="translate(18.011 35.422)">
            <path id="path3029" d="M-93.138-177.543a11.061,11.061,0,0,1-6.461.211A11.126,11.126,0,0,1-107.17-191.9l5-13.688" transform="translate(107.85 205.586)" fill="none" stroke="#252525" stroke-linecap="round" stroke-linejoin="round" stroke-miterlimit="10" stroke-width="3"/>
          </g>
          <g id="g3031" transform="translate(48.617 18.619)">
            <path id="path3033" d="M-159.963-149.021l.547,1.5a11.127,11.127,0,0,1-7.571,14.566,11.127,11.127,0,0,1-13.839-8.829l-4.375-25a1.819,1.819,0,0,1,1.321-2.07l13.575-3.637a1.818,1.818,0,0,1,2.179,1.132L-162-154.608" transform="translate(185.229 172.559)" fill="none" stroke="#252525" stroke-linecap="round" stroke-linejoin="round" stroke-miterlimit="10" stroke-width="3"/>
          </g>
        </g>
      </g>
    </g>
  </g>
</svg>
