<svg xmlns="http://www.w3.org/2000/svg" width="105.823" height="93.12" viewBox="0 0 105.823 93.12">
  <g id="housing" transform="translate(7229.692 -14404)">
    <g id="Group_77" data-name="Group 77" transform="translate(-7229.692 14373.225)">
      <g id="Group_76" data-name="Group 76" transform="translate(0 30.775)">
        <path id="Path_112" data-name="Path 112" d="M105.641,97.542a6.447,6.447,0,0,0-7.958-4.63l-4.692,1.612v-24.1a4.909,4.909,0,0,0,7.5-2.15,4.887,4.887,0,0,0-1.24-5.395L78.027,43.264a1.55,1.55,0,1,0-2.108,2.274L97.146,65.133a1.757,1.757,0,0,1,.455,1.984,1.811,1.811,0,0,1-2.914.682L65.873,41.218a4.947,4.947,0,0,0-6.656,0L30.4,67.8a1.807,1.807,0,0,1-2.914-.682,1.754,1.754,0,0,1,.455-1.984l33.36-30.8a1.814,1.814,0,0,1,2.46,0l7.172,6.635A1.55,1.55,0,1,0,73.045,38.7l-7.172-6.635a4.947,4.947,0,0,0-6.656,0l-33.381,30.8a4.912,4.912,0,0,0,6.242,7.565V82.619a45.706,45.706,0,0,0-10.045,3.638v-5a3.414,3.414,0,0,0-3.41-3.41H14.655V73.979a1.561,1.561,0,0,0-1.55-1.55H1.55A1.561,1.561,0,0,0,0,73.979v48.366a1.561,1.561,0,0,0,1.55,1.55H13.1a1.561,1.561,0,0,0,1.55-1.55V118.48h3.989a3.414,3.414,0,0,0,3.41-3.41v-3.72l31.4,8.805a11.31,11.31,0,0,0,5.519.165l18.52-3.969c.579-.124,14.882-6.862,23.666-11a6.665,6.665,0,0,0,4.485-7.813ZM35.179,67.613,61.305,43.492a1.814,1.814,0,0,1,2.46,0l26.105,24.1V95.6L77.324,99.94l-3.617.165V70.445A11.656,11.656,0,0,0,62.5,58.828,11.651,11.651,0,0,0,51.4,68.915a1.552,1.552,0,0,0,3.08.393,8.522,8.522,0,0,1,8.02-7.379,8.516,8.516,0,0,1,8.1,8.5V96.777c-.1-.248-.227-.5-.351-.744a6.466,6.466,0,0,0-3.886-3.059c-.021,0-.021,0-.041-.021-.083-.021-7.338-1.84-11.037-3.1a9.275,9.275,0,0,1-.889-.372v-13.6a1.55,1.55,0,0,0-3.1,0V87.7c-.785-.517-1.571-1.054-2.336-1.592-2.522-1.736-4.713-3.245-6.283-3.679a18.994,18.994,0,0,0-7.524-.372V67.613ZM18.644,115.38H14.655v-21.5a1.55,1.55,0,1,0-3.1,0V120.8H3.1V75.529h8.454V87.145a1.55,1.55,0,1,0,3.1,0v-6.18h3.989a.318.318,0,0,1,.31.31v33.836A.314.314,0,0,1,18.644,115.38Zm58.143-2.067a.352.352,0,0,1,.145-.021C76.869,113.292,76.828,113.313,76.787,113.313Zm23.439-10.934S78.337,112.631,76.7,113.333l-18.375,3.948a8.315,8.315,0,0,1-4.031-.124l-32.244-9.033V89.75c5.023-2.79,13.89-5.973,19.822-4.32,2.377.661,8.722,6.18,12.464,7.441s10.707,3.018,11.244,3.162a3.351,3.351,0,0,1,1.9,5.023,3.317,3.317,0,0,1-3.72,1.406L46.919,97.749a1.545,1.545,0,0,0-.827,2.976c17.61,4.857,17.011,4.961,18.582,4.961a6.435,6.435,0,0,0,4.919-2.294c8.392-.413,8.164-.331,8.557-.475l20.483-7.069a3.339,3.339,0,0,1,4.01,2.439,3.577,3.577,0,0,1-2.418,4.093Z" transform="translate(0 -30.775)" fill="#252525"/>
        <path id="Path_113" data-name="Path 113" d="M276.15,250.431a1.561,1.561,0,0,0,1.55-1.55v-.93a1.55,1.55,0,0,0-3.1,0v.93A1.535,1.535,0,0,0,276.15,250.431Z" transform="translate(-217.842 -201.832)" fill="#c20ad8"/>
      </g>
    </g>
    <path id="Path_112-2" data-name="Path 112" d="M95.926,71.4a5.612,5.612,0,0,0,4.568-3.121,4.887,4.887,0,0,0-1.24-5.395L78.027,43.264a1.55,1.55,0,1,0-2.108,2.274L97.146,65.133a1.757,1.757,0,0,1,.455,1.984,1.811,1.811,0,0,1-2.914.682L65.873,41.218a4.947,4.947,0,0,0-6.656,0L30.4,67.8a1.807,1.807,0,0,1-2.914-.682,1.754,1.754,0,0,1,.455-1.984l33.36-30.8a1.814,1.814,0,0,1,2.46,0l7.172,6.635A1.55,1.55,0,1,0,73.045,38.7l-7.172-6.635a4.947,4.947,0,0,0-6.656,0l-33.381,30.8a4.91,4.91,0,0,0,3.328,8.516,9.074,9.074,0,0,0,2.914-.951l28.91-26.633a2.579,2.579,0,0,1,1.563-.781,2.517,2.517,0,0,1,1.547.781l28.268,26.28S94.322,71.547,95.926,71.4Z" transform="translate(-7229.692 14373.225)" fill="#c20ad8"/>
  </g>
</svg>
