<svg xmlns="http://www.w3.org/2000/svg" width="93.158" height="93.12" viewBox="0 0 93.158 93.12">
  <g id="jobs" transform="translate(7457.01 -14404)">
    <g id="Group_71" data-name="Group 71" transform="translate(-7458.01 14402.975)">
      <path id="Path_111" data-name="Path 111" d="M91.153,58.084H82.138V53.577a4.513,4.513,0,0,0-4.508-4.508H62.6a4.488,4.488,0,0,0-3.28,1.435L43.071,47.8V44.031a15.021,15.021,0,0,0,7.513-12.993h1.5a4.508,4.508,0,0,0,0-9.015h-.721l.823-1.91A12.134,12.134,0,0,0,46.075,4.261l-4.194-1.91A15.405,15.405,0,0,0,26.509,4.019L24.139,5.8l0,0a9.348,9.348,0,0,0-6.03,13.239L19.6,22.023h-.574a4.508,4.508,0,1,0,0,9.015h1.5a15.021,15.021,0,0,0,7.513,12.993V47.8L9.788,50.839A10.484,10.484,0,0,0,1,61.214V92.643a1.5,1.5,0,0,0,1.5,1.5H91.153a3.008,3.008,0,0,0,3.005-3.005V61.089A3.008,3.008,0,0,0,91.153,58.084Zm-12.02-4.508v4.508H69.619a10.527,10.527,0,0,0-4.867-6.01H77.63A1.5,1.5,0,0,1,79.133,53.577ZM61.1,53.87a7.505,7.505,0,0,1,5.3,4.215H61.1ZM53.589,26.531a1.505,1.505,0,0,1-1.5,1.5h-1.5V25.028h1.5A1.505,1.505,0,0,1,53.589,26.531ZM21.035,11.585A6.389,6.389,0,0,1,26.483,8.5a7.023,7.023,0,0,1,5.851,3.13l.472.708,2.5-1.666-.472-.708a10.007,10.007,0,0,0-5.668-4.093,12.349,12.349,0,0,1,11.469-.786l4.194,1.91a9.131,9.131,0,0,1,4.6,11.927l-.1.234L47.421,15.34a1.5,1.5,0,0,0-2.246-.53l-2.4,1.8a12.017,12.017,0,0,1-14.424,0l-2.4-1.8a1.5,1.5,0,0,0-2.246.53L21.66,19.415,20.8,17.7a6.324,6.324,0,0,1,.234-6.111Zm-2,16.448a1.5,1.5,0,0,1,0-3.005h1.5v3.005Zm4.508,3.005V22.378l2.04-4.082.965.723a15.026,15.026,0,0,0,18.031,0l.965-.723,2.04,4.082v8.661a12.02,12.02,0,1,1-24.041,0Zm12.02,15.026a14.957,14.957,0,0,0,4.508-.693v3.076l-4.508,4.508-4.508-4.508V45.371a14.957,14.957,0,0,0,4.508.693Zm-.485,16.528h.971l2.452,6.13L35.559,81.453,32.621,68.722Zm3.334-6.231-2.15,3.226h-1.4l-2.152-3.226.5-1.5L34.5,56.143a1.5,1.5,0,0,0,2.125,0l1.286-1.286ZM19.031,91.14V65.6H16.026V91.14H4.005V61.214A7.492,7.492,0,0,1,10.283,53.8l18.75-3.124,1.8,1.8-1.21,3.627a1.5,1.5,0,0,0,.176,1.309l2.566,3.85-2.712,6.78a1.508,1.508,0,0,0-.069.9l4.508,19.533a1.5,1.5,0,0,0,2.93,0L41.531,68.94a1.51,1.51,0,0,0-.069-.9l-2.712-6.78,2.566-3.85a1.507,1.507,0,0,0,.176-1.309l-1.21-3.627,1.8-1.8L58.12,53.35c0,.077-.023.149-.023.227v4.508H49.082a3.008,3.008,0,0,0-3.005,3.005V91.14Zm31.554,0h-1.5V88.135H91.155V91.14Zm40.57-6.01H49.082V72.943a10.478,10.478,0,0,0,7.513,3.172H65.61v1.5a4.508,4.508,0,0,0,9.015,0v-1.5H83.64a10.487,10.487,0,0,0,7.514-3.172Zm-22.54-7.513V70.1H71.62v7.513a1.5,1.5,0,0,1-3.005,0ZM91.153,65.6A7.521,7.521,0,0,1,83.64,73.11H74.625V68.6a1.5,1.5,0,0,0-1.5-1.5h-6.01a1.5,1.5,0,0,0-1.5,1.5V73.11H56.594A7.521,7.521,0,0,1,49.082,65.6V61.089H91.153Z" transform="translate(0)" fill="#252525"/>
    </g>
    <g id="Group_72" data-name="Group 72" transform="translate(-7458.01 14402.975)">
      <path id="Path_111-2" data-name="Path 111" d="M65.61,76.115v1.5a4.508,4.508,0,0,0,9.015,0v-1.5H65.61Zm3.005,1.5v-1.5H71.62v1.5a1.5,1.5,0,0,1-3.005,0Zm6.01-4.508V68.6a1.5,1.5,0,0,0-1.5-1.5h-6.01a1.5,1.5,0,0,0-1.5,1.5V73.11h3.005V69.467H71.62V73.11Z" transform="translate(0)" fill="#c20ad8"/>
    </g>
    <g id="Group_70" data-name="Group 70" transform="translate(-7458 14402.975)">
      <path id="Path_111-3" data-name="Path 111" d="M35.073,62.592h.971l2.452,6.13L35.559,81.453,32.621,68.722Zm3.334-6.231-2.15,3.226h-1.4l-2.152-3.226.5-1.5L34.5,56.143a1.5,1.5,0,0,0,2.125,0l1.286-1.286ZM30.835,52.48l-1.21,3.627a1.5,1.5,0,0,0,.176,1.309l2.566,3.85-2.712,6.78a1.508,1.508,0,0,0-.069.9l4.508,19.533a1.5,1.5,0,0,0,2.93,0L41.531,68.94a1.51,1.51,0,0,0-.069-.9l-2.712-6.78,2.566-3.85a1.507,1.507,0,0,0,.176-1.309l-1.21-3.627H38.408l-2.849,1.6-2.85-1.6Z" transform="translate(0)" fill="#c20ad8"/>
    </g>
  </g>
</svg>
