<svg id="pending" xmlns="http://www.w3.org/2000/svg" width="50" height="50" viewBox="0 0 50 50">
  <path id="Path_162" data-name="Path 162" d="M22.917,28.59a4.133,4.133,0,0,1,0-7.179V14.583a2.083,2.083,0,1,1,4.167,0V21.41a4.133,4.133,0,0,1,0,7.179v4.744a2.083,2.083,0,0,1-4.167,0ZM25,0a2.083,2.083,0,1,0,0,4.167,20.833,20.833,0,0,1,0,41.667A2.083,2.083,0,1,0,25,50,25,25,0,1,0,25,0ZM3.806,14.133A2.083,2.083,0,1,0,5.89,16.217,2.083,2.083,0,0,0,3.806,14.133ZM4.167,25a2.083,2.083,0,1,0-2.083,2.083A2.083,2.083,0,0,0,4.167,25ZM8.794,6.681a2.083,2.083,0,1,0,2.083,2.083A2.083,2.083,0,0,0,8.794,6.681Zm7.413-4.929A2.083,2.083,0,1,0,18.29,3.835a2.083,2.083,0,0,0-2.083-2.083ZM3.806,31.7A2.083,2.083,0,1,0,5.89,33.783,2.083,2.083,0,0,0,3.806,31.7Zm4.987,7.452a2.083,2.083,0,1,0,2.083,2.083A2.083,2.083,0,0,0,8.794,39.152Zm7.413,4.929a2.083,2.083,0,1,0,2.083,2.083,2.083,2.083,0,0,0-2.083-2.083Z" fill="#fff"/>
</svg>
