<svg xmlns="http://www.w3.org/2000/svg" width="89.735" height="93.12" viewBox="0 0 89.735 93.12">
  <g id="places" transform="translate(-5.5 -4.5)">
    <path id="path4" d="M35.927,24.939A1.664,1.664,0,0,1,34.445,26.5a1.828,1.828,0,0,1-1.454-.537,1.687,1.687,0,0,1-.449-1.278A22.484,22.484,0,0,1,54.485,4.5a22.02,22.02,0,0,1,22.01,22.01c0,3.5-1.851,9.365-4.517,15.83-6.007,14.569-16.017,32.4-16.017,32.4a1.692,1.692,0,0,1-2.953,0s-2.174-3.874-5.1-9.485a1.7,1.7,0,0,1-.191-.782v-.005a1.691,1.691,0,0,1,3.19-.782c1.434,2.743,2.684,5.066,3.583,6.717,2.983-5.475,9.828-18.358,14.364-29.357,2.453-5.951,4.26-11.315,4.26-14.54a18.624,18.624,0,0,0-37.182-1.571Z" transform="translate(18.74)" fill="#c20ad8"/>
    <path id="path6" d="M48.966,12.5a8.465,8.465,0,1,0,8.465,8.465A8.47,8.47,0,0,0,48.966,12.5Zm0,3.386a5.079,5.079,0,1,1-5.079,5.079A5.081,5.081,0,0,1,48.966,15.886Z" transform="translate(24.259 5.545)" fill="#c20ad8"/>
    <g id="Group_74" data-name="Group 74" transform="translate(5.5 94.234)">
      <path id="circle10" d="M7.193,60.886a1.693,1.693,0,1,1,1.693-1.693A1.693,1.693,0,0,1,7.193,60.886Z" transform="translate(-5.5 -57.5)" fill="#c20ad8"/>
      <path id="circle14" d="M21.193,60.886a1.693,1.693,0,1,1,1.693-1.693A1.693,1.693,0,0,1,21.193,60.886Z" transform="translate(4.203 -57.5)" fill="#c20ad8"/>
      <path id="circle18" d="M40.193,60.886a1.693,1.693,0,1,1,1.693-1.693A1.693,1.693,0,0,1,40.193,60.886Z" transform="translate(17.372 -57.5)" fill="#c20ad8"/>
    </g>
    <path id="path22" d="M27.046,46.886A3.387,3.387,0,0,0,23.659,43.5H16.887A3.387,3.387,0,0,0,13.5,46.886v5.079a3.387,3.387,0,0,0,3.387,3.386h6.772a3.387,3.387,0,0,0,3.387-3.386Zm-3.387,0H16.887v5.079h6.772Z" transform="translate(5.545 27.031)" fill="#252525"/>
    <path id="path26" d="M19.045,19.5H49.521a6.773,6.773,0,0,1,6.253,4.168l7.162,17.19a1.716,1.716,0,0,1,.13.652v6.772a8.469,8.469,0,0,1-5.079,7.761V78.758a1.693,1.693,0,0,1-1.693,1.693H12.273a1.694,1.694,0,0,1-1.693-1.693V56.042A8.469,8.469,0,0,1,5.5,48.282V41.556a1.724,1.724,0,0,1,.13-.7s4.79-11.493,7.163-17.192A6.774,6.774,0,0,1,19.045,19.5ZM47.828,53.362a8.333,8.333,0,0,1-6.51,3.386,8.459,8.459,0,0,1-7.035-3.386,8.333,8.333,0,0,1-6.51,3.386,8.473,8.473,0,0,1-7.035-3.385,8.451,8.451,0,0,1-6.772,3.385V77.065h22.01V65.213a5.08,5.08,0,0,1,5.079-5.079h3.386a5.079,5.079,0,0,1,5.079,5.079V77.065H54.6V56.748a8.473,8.473,0,0,1-5.987-2.479,8.644,8.644,0,0,1-.786-.907Zm-1.693,23.7V65.213a1.693,1.693,0,0,0-1.693-1.693H41.055a1.694,1.694,0,0,0-1.693,1.693V77.065ZM59.679,43.2H49.521v5.079a5.079,5.079,0,0,0,10.159,0Zm-40.634,0H8.887v5.079a5.079,5.079,0,0,0,10.159.064Zm13.545,0H22.431v5.144a5.079,5.079,0,0,0,10.159-.064Zm13.545,0H35.976v5.079a5.079,5.079,0,1,0,10.159,0ZM32.59,22.886H27.14L22.907,39.817H32.59Zm8.836,0h-5.45V39.817h9.683ZM58.833,39.817,52.646,24.97a3.385,3.385,0,0,0-3.125-2.084h-4.6l4.231,16.931ZM23.649,22.886h-4.6A3.386,3.386,0,0,0,15.92,24.97L9.733,39.817h9.685Z" transform="translate(0 10.396)" fill="#252525"/>
    <path id="path28" d="M11.193,60.886H21.352a1.693,1.693,0,0,0,0-3.386H11.193a1.693,1.693,0,0,0,0,3.386Z" transform="translate(2.772 36.734)" fill="#252525"/>
    <path id="path32" d="M25.194,60.886H43.817a1.693,1.693,0,0,0,0-3.386H25.194a1.693,1.693,0,0,0,0,3.386Z" transform="translate(12.476 36.734)" fill="#252525"/>
  </g>
</svg>
