<svg xmlns="http://www.w3.org/2000/svg" xmlns:xlink="http://www.w3.org/1999/xlink" width="24.454" height="24.454" viewBox="0 0 24.454 24.454">
  <defs>
    <clipPath id="clip-path">
      <path id="path2412" d="M0-682.665H24.454v24.454H0Z" transform="translate(0 682.665)" fill="#252525" stroke="#252525" stroke-width="1.3"/>
    </clipPath>
  </defs>
  <g id="platforms" transform="translate(0 -0.002)">
    <g id="g2406" transform="translate(0 0.002)">
      <g id="g2408">
        <g id="g2410" clip-path="url(#clip-path)">
          <g id="g2416" transform="translate(0.716 0.716)">
            <path id="path2418" d="M-619.644-205.691l-11.511,7.642-11.511-7.642,11.511-7.642Z" transform="translate(642.665 213.333)" fill="none" stroke="#252525" stroke-linecap="round" stroke-linejoin="round" stroke-miterlimit="10" stroke-width="1.3"/>
          </g>
        </g>
      </g>
      <g id="g2420" transform="translate(6.221 4.585)">
        <path id="path2422" d="M-323.34-107.332l-6.006-3.988-6.007,3.988" transform="translate(335.353 111.32)" fill="none" stroke="#c20ad8" stroke-linecap="round" stroke-linejoin="round" stroke-miterlimit="10" stroke-width="1.3"/>
      </g>
      <g id="g2424">
        <g id="g2426" clip-path="url(#clip-path)">
          <g id="g2432" transform="translate(0.716 10.293)">
            <path id="path2434" d="M-78.423,0l-2.914,1.934,11.511,7.642,11.511-7.642L-61.229,0" transform="translate(81.337)" fill="none" stroke="#252525" stroke-linecap="round" stroke-linejoin="round" stroke-miterlimit="10" stroke-width="1.3"/>
          </g>
        </g>
      </g>
      <g id="g2436" transform="translate(9.134 8.454)">
        <path id="path2438" d="M-166.5-55.268l-3.093-2.053-3.093,2.053" transform="translate(172.681 57.321)" fill="none" stroke="#c20ad8" stroke-linecap="round" stroke-linejoin="round" stroke-miterlimit="10" stroke-width="1.3"/>
      </g>
      <g id="g2440">
        <g id="g2442" clip-path="url(#clip-path)">
          <g id="g2448" transform="translate(0.716 14.162)">
            <path id="path2450" d="M-78.422,0l-2.914,1.934,11.511,7.642,11.511-7.642L-61.228,0" transform="translate(81.336)" fill="none" stroke="#252525" stroke-linecap="round" stroke-linejoin="round" stroke-miterlimit="10" stroke-width="1.3"/>
          </g>
        </g>
      </g>
    </g>
  </g>
</svg>
