<svg xmlns="http://www.w3.org/2000/svg" width="56.661" height="50" viewBox="0 0 56.661 50">
  <g id="promotion" transform="translate(0 -30.098)">
    <g id="Group_124" data-name="Group 124" transform="translate(0 30.098)">
      <g id="Group_123" data-name="Group 123" transform="translate(0 0)">
        <path id="Path_163" data-name="Path 163" d="M38.33,30.1a5.009,5.009,0,0,0-4.84,3.745L14.728,40.1H5a5.005,5.005,0,0,0-5,5v10a5.005,5.005,0,0,0,5,5h.066L6.775,76.08a4.995,4.995,0,1,0,9.773-2.062l-.363-3.929c.035,0,.069.005.1.005h2.041a5.005,5.005,0,0,0,5-5V62.963l10.158,3.386a5,5,0,0,0,9.84-1.254v-30A5.005,5.005,0,0,0,38.33,30.1ZM12.068,76.711a1.665,1.665,0,0,1-1.993-1.121L8.417,60.1h3.5c1.417,15.344,1.322,14.41,1.367,14.593A1.67,1.67,0,0,1,12.068,76.711Zm1.264-19.949H5A1.668,1.668,0,0,1,3.333,55.1v-10A1.668,1.668,0,0,1,5,43.43h8.333ZM20,65.095a1.668,1.668,0,0,1-1.667,1.667H16.29a1.663,1.663,0,0,0-.407.052l-.6-6.534L20,61.852ZM33.33,62.782,16.665,57.227V42.965L33.33,37.41ZM40,65.095a1.667,1.667,0,1,1-3.333,0v-30A1.667,1.667,0,0,1,40,35.1Z" transform="translate(0 -30.098)" fill="#fff"/>
      </g>
    </g>
    <g id="Group_126" data-name="Group 126" transform="translate(46.662 46.763)">
      <g id="Group_125" data-name="Group 125" transform="translate(0 0)">
        <path id="Path_164" data-name="Path 164" d="M429.977,180.686h-6.666a1.667,1.667,0,0,0,0,3.333h6.666a1.667,1.667,0,1,0,0-3.333Z" transform="translate(-421.644 -180.686)" fill="#fff"/>
      </g>
    </g>
    <g id="Group_128" data-name="Group 128" transform="translate(46.662 36.764)">
      <g id="Group_127" data-name="Group 127" transform="translate(0 0)">
        <path id="Path_165" data-name="Path 165" d="M431.465,91.252a1.667,1.667,0,0,0-2.236-.745l-6.666,3.333a1.667,1.667,0,0,0,1.491,2.981l6.666-3.333A1.667,1.667,0,0,0,431.465,91.252Z" transform="translate(-421.641 -90.33)" fill="#fff"/>
      </g>
    </g>
    <g id="Group_130" data-name="Group 130" transform="translate(46.662 53.429)">
      <g id="Group_129" data-name="Group 129" transform="translate(0 0)">
        <path id="Path_166" data-name="Path 166" d="M430.719,244.427l-6.666-3.333a1.667,1.667,0,1,0-1.491,2.981l6.666,3.333a1.667,1.667,0,0,0,1.491-2.981Z" transform="translate(-421.641 -240.917)" fill="#fff"/>
      </g>
    </g>
  </g>
</svg>
