<svg id="reataurants" xmlns="http://www.w3.org/2000/svg" width="93.12" height="93.12" viewBox="0 0 93.12 93.12">
  <g id="Group_89" data-name="Group 89" transform="translate(20.734 20.734)">
    <g id="Group_88" data-name="Group 88">
      <path id="Path_124" data-name="Path 124" d="M139.826,114a25.826,25.826,0,1,0,25.826,25.826A25.856,25.856,0,0,0,139.826,114Zm0,48.015a22.189,22.189,0,1,1,22.189-22.189A22.214,22.214,0,0,1,139.826,162.015Z" transform="translate(-114 -114)" fill="#252525"/>
    </g>
  </g>
  <g id="Group_91" data-name="Group 91" transform="translate(76.024 0)">
    <g id="Group_90" data-name="Group 90">
      <path id="Path_125" data-name="Path 125" d="M434.131.212a1.82,1.82,0,0,0-1.871.1A32.358,32.358,0,0,0,418,27.156v23.6a9.415,9.415,0,0,0,2.775,6.7l3.408,3.408v26.8a5.456,5.456,0,1,0,10.913,0V1.819A1.819,1.819,0,0,0,434.131.212Zm-2.672,87.451a1.819,1.819,0,1,1-3.637,0V60.11a1.819,1.819,0,0,0-.533-1.286l-3.941-3.941a5.8,5.8,0,0,1-1.71-4.128v-23.6A28.718,28.718,0,0,1,431.459,5.51Z" transform="translate(-418 0)" fill="#252525"/>
    </g>
  </g>
  <g id="Group_93" data-name="Group 93" transform="translate(29.841 31.031)">
    <g id="Group_92" data-name="Group 92">
      <path id="Path_126" data-name="Path 126" d="M176.621,171.722a1.819,1.819,0,0,0-2.387-.959,16.7,16.7,0,0,0-10.159,15.383,1.819,1.819,0,1,0,3.638,0,13.071,13.071,0,0,1,7.95-12.037A1.819,1.819,0,0,0,176.621,171.722Z" transform="translate(-164.075 -170.617)" fill="#c20ad8"/>
    </g>
  </g>
  <g id="Group_95" data-name="Group 95" transform="translate(44.662 29.841)">
    <g id="Group_94" data-name="Group 94">
      <path id="Path_127" data-name="Path 127" d="M247.46,164.075h-.092a1.819,1.819,0,0,0,.012,3.638h.08a1.819,1.819,0,1,0,0-3.637Z" transform="translate(-245.562 -164.075)" fill="#c20ad8"/>
    </g>
  </g>
  <g id="Group_97" data-name="Group 97" transform="translate(29.816 11.806)">
    <g id="Group_96" data-name="Group 96">
      <path id="Path_128" data-name="Path 128" d="M205.893,75.747a34.777,34.777,0,0,0-40.962-7.067,1.819,1.819,0,1,0,1.651,3.241,31.14,31.14,0,0,1,36.673,6.33,1.819,1.819,0,0,0,2.638-2.5Z" transform="translate(-163.937 -64.914)" fill="#252525"/>
    </g>
  </g>
  <g id="Group_99" data-name="Group 99" transform="translate(26.932 65.152)">
    <g id="Group_98" data-name="Group 98">
      <path id="Path_129" data-name="Path 129" d="M194.687,358.616a1.819,1.819,0,0,0-2.555.3,31.128,31.128,0,0,1-41.247,6.9,1.819,1.819,0,1,0-1.97,3.058,34.765,34.765,0,0,0,46.07-7.7A1.819,1.819,0,0,0,194.687,358.616Z" transform="translate(-148.081 -358.224)" fill="#252525"/>
    </g>
  </g>
  <g id="Group_101" data-name="Group 101" transform="translate(21.461 68.021)">
    <g id="Group_100" data-name="Group 100">
      <path id="Path_130" data-name="Path 130" d="M121.266,374.714l-.027-.031-.029-.035a1.819,1.819,0,1,0-2.783,2.343l.018.021h0c.019.024.039.049.06.073a1.819,1.819,0,0,0,2.76-2.369Z" transform="translate(-118 -374)" fill="#c20ad8"/>
    </g>
  </g>
  <g id="Group_103" data-name="Group 103" transform="translate(0 0)">
    <g id="Group_102" data-name="Group 102">
      <path id="Path_131" data-name="Path 131" d="M22.553,0a1.819,1.819,0,0,0-1.819,1.819V21.461H17.459c0-.01,0-.02,0-.03V1.819a1.819,1.819,0,0,0-3.638,0V21.431c0,.01,0,.02,0,.03H10.547c0-.01,0-.02,0-.03V1.819a1.819,1.819,0,1,0-3.638,0V21.431c0,.01,0,.02,0,.03H3.638V1.819A1.819,1.819,0,0,0,0,1.819V24.008A11.2,11.2,0,0,0,6.729,34.236V87.664a5.456,5.456,0,0,0,10.913,0V34.236a11.2,11.2,0,0,0,6.729-10.228V1.819A1.819,1.819,0,0,0,22.553,0ZM15.318,31.213A1.819,1.819,0,0,0,14,32.961v54.7a1.819,1.819,0,0,1-3.638,0v-54.7a1.819,1.819,0,0,0-1.314-1.747A7.54,7.54,0,0,1,3.72,25.1H20.651A7.54,7.54,0,0,1,15.318,31.213Z" fill="#252525"/>
    </g>
  </g>
</svg>
