<svg xmlns="http://www.w3.org/2000/svg" width="83.663" height="93.12" viewBox="0 0 83.663 93.12">
  <g id="services" transform="translate(-26)">
    <g id="Group_79" data-name="Group 79" transform="translate(86.019 72.023)">
      <g id="Group_78" data-name="Group 78">
        <path id="Path_114" data-name="Path 114" d="M357.819,396a1.819,1.819,0,1,0,1.819,1.819A1.819,1.819,0,0,0,357.819,396Z" transform="translate(-356 -396)" fill="#c20ad8"/>
      </g>
    </g>
    <g id="Group_81" data-name="Group 81" transform="translate(26)">
      <g id="Group_80" data-name="Group 80">
        <path id="Path_115" data-name="Path 115" d="M92.316,66.141,83.671,63.26l-3.1-6.207a19.92,19.92,0,0,0,5.392-10.538l.387-2.32h3.31a5.462,5.462,0,0,0,5.456-5.456V27.281a27.281,27.281,0,1,0-54.563,0V38.739a5.465,5.465,0,0,0,3.638,5.143v2.132a5.462,5.462,0,0,0,5.456,5.456h1.6a19.731,19.731,0,0,0,3.051,4.724c.258.3.526.583.8.862l-3.1,6.2-8.645,2.881C33.3,69.493,26,80.074,26,91.3a1.819,1.819,0,0,0,1.819,1.819h80.025a1.819,1.819,0,0,0,1.819-1.819C109.663,80.074,102.367,69.493,92.316,66.141Zm-.841-27.4a1.821,1.821,0,0,1-1.819,1.819H86.881c.462-3.581.77-7.392.894-11.145,0-.106.007-.209.01-.313h3.69ZM46.006,40.558a1.821,1.821,0,0,1-1.819-1.819V29.1h3.692q.009.285.019.572c0,.007,0,.013,0,.019v0c.127,3.651.431,7.362.883,10.865H46.006Zm3.638,7.275a1.821,1.821,0,0,1-1.819-1.819V44.2h1.491l.387,2.321c.074.441.165.88.27,1.317ZM47.828,25.463H44.257a23.645,23.645,0,0,1,47.149,0H87.835A18.421,18.421,0,0,0,69.459,7.275H66.2A18.421,18.421,0,0,0,47.828,25.463ZM66.2,10.913h3.256A14.789,14.789,0,0,1,84.2,25.719c0,.572,0,1.071-.014,1.524,0,.006,0,.012,0,.018l-2.275-.325A29.225,29.225,0,0,1,65.48,18.72a1.819,1.819,0,0,0-1.286-.533,16.454,16.454,0,0,0-12.651,5.985A14.784,14.784,0,0,1,66.2,10.913ZM53.743,47.833c-.91-3.029-1.952-11.941-2.183-17.652l2.448-3.264a12.8,12.8,0,0,1,9.466-5.072A32.9,32.9,0,0,0,81.4,30.537l2.678.383c-.179,3.8-.545,7.61-1.069,11.116v0c-.167,1.127-.3,1.852-.633,3.878-.963,5.777-5.274,11-10.965,12.424a14.31,14.31,0,0,1-16.064-6.871H59.05a5.465,5.465,0,0,0,5.143,3.638h3.637a5.456,5.456,0,1,0,0-10.913H64.194a5.459,5.459,0,0,0-5.147,3.638Zm10.3,14.189a18.243,18.243,0,0,0,6.765.152l-3.214,3.4Zm1.051,6.2-5.769,6.1a69.3,69.3,0,0,1-4.072-9.442l2.166-4.333Zm12.846-8.291,2.474,4.949a69.277,69.277,0,0,1-4.073,9.445l-6.174-6.174ZM62.375,49.652a1.819,1.819,0,0,1,1.819-1.819h3.637a1.819,1.819,0,1,1,0,3.638H64.194A1.821,1.821,0,0,1,62.375,49.652ZM29.71,89.483c.721-9.01,6.717-17.2,14.787-19.89l7.656-2.551A72.908,72.908,0,0,0,57.33,78.27l.01.018h0a72.927,72.927,0,0,0,4.978,7.6l2.237,3.592Zm38.121-1.621L65.365,83.9q-.041-.067-.088-.129a69.347,69.347,0,0,1-4.1-6.122l6.486-6.859L74.5,77.625a69.27,69.27,0,0,1-4.112,6.147C70.3,83.89,70.424,83.7,67.831,87.861Zm3.276,1.621,2.237-3.592a72.9,72.9,0,0,0,5.013-7.663l.027-.048,0-.006A72.85,72.85,0,0,0,83.51,67.041l7.656,2.551c8.07,2.691,14.066,10.881,14.787,19.89H71.107Z" transform="translate(-26)" fill="#252525"/>
      </g>
    </g>
    <g id="Group_83" data-name="Group 83" transform="translate(92.41 75.494)">
      <g id="Group_82" data-name="Group 82">
        <path id="Path_116" data-name="Path 116" d="M399.216,421.716a18.184,18.184,0,0,0-5.149-6.251,1.819,1.819,0,1,0-2.218,2.883,14.525,14.525,0,0,1,4.112,4.993,1.819,1.819,0,0,0,3.254-1.626Z" transform="translate(-391.139 -415.088)" fill="#c20ad8"/>
      </g>
    </g>
  </g>
</svg>
