<svg xmlns="http://www.w3.org/2000/svg" width="93.12" height="93.12" viewBox="0 0 93.12 93.12">
  <g id="shops" transform="translate(-2 -2)">
    <g id="shop_·_shopping_·_market_·_ecommerce_·_online" data-name="shop · shopping · market · ecommerce · online" transform="translate(2 2)">
      <path id="Path_117" data-name="Path 117" d="M29.552,48A1.552,1.552,0,0,0,28,49.552V51.1a1.552,1.552,0,0,0,3.1,0V49.552A1.552,1.552,0,0,0,29.552,48Z" transform="translate(12.352 23.392)" fill="#c20ad8"/>
      <path id="Path_118" data-name="Path 118" d="M35.552,48A1.552,1.552,0,0,0,34,49.552V51.1a1.552,1.552,0,0,0,3.1,0V49.552A1.552,1.552,0,0,0,35.552,48Z" transform="translate(15.664 23.392)" fill="#c20ad8"/>
      <path id="Path_119" data-name="Path 119" d="M28.312,15.864a4.656,4.656,0,0,0-4.656-4.656,1.552,1.552,0,1,1,1.552-1.552,1.552,1.552,0,0,0,3.1,0,4.656,4.656,0,1,0-4.656,4.656A1.552,1.552,0,1,1,22.1,15.864a1.552,1.552,0,1,0-3.1,0,4.656,4.656,0,0,0,9.312,0Z" transform="translate(7.384 -0.344)" fill="#c20ad8"/>
      <path id="Path_120" data-name="Path 120" d="M37.656,20.52a4.656,4.656,0,0,0,4.656-4.656V9.656a4.656,4.656,0,0,0-9.312,0v6.208A4.656,4.656,0,0,0,37.656,20.52ZM36.1,9.656a1.552,1.552,0,0,1,3.1,0v6.208a1.552,1.552,0,0,1-3.1,0Z" transform="translate(15.112 -0.344)" fill="#c20ad8"/>
      <path id="Path_121" data-name="Path 121" d="M27.552,20.52A1.552,1.552,0,0,0,29.1,18.968V14.312h3.1v4.656a1.552,1.552,0,0,0,3.1,0V6.552a1.552,1.552,0,0,0-3.1,0v4.656H29.1V6.552a1.552,1.552,0,0,0-3.1,0V18.968A1.552,1.552,0,0,0,27.552,20.52Z" transform="translate(11.248 -0.344)" fill="#c20ad8"/>
      <path id="Path_122" data-name="Path 122" d="M41.552,20.52A1.552,1.552,0,0,0,43.1,18.968V14.312h1.552a4.656,4.656,0,0,0,0-9.312h-3.1A1.552,1.552,0,0,0,40,6.552V18.968A1.552,1.552,0,0,0,41.552,20.52ZM43.1,8.1h1.552a1.552,1.552,0,0,1,0,3.1H43.1Z" transform="translate(18.976 -0.344)" fill="#c20ad8"/>
      <path id="Path_123" data-name="Path 123" d="M90.464,85.808h-3.1v-31.2a7.786,7.786,0,0,0,6.208-7.6V43.9a1.533,1.533,0,0,0-.233-.823l-7.76-12.416a1.571,1.571,0,0,0-1.319-.729H64.08v-3.1h7.76A4.67,4.67,0,0,0,76.5,22.176V6.656A4.67,4.67,0,0,0,71.84,2H25.28a4.67,4.67,0,0,0-4.656,4.656v15.52a4.67,4.67,0,0,0,4.656,4.656h7.76v3.1H12.864a1.571,1.571,0,0,0-1.319.729L3.785,43.081a1.533,1.533,0,0,0-.233.823v3.1a7.786,7.786,0,0,0,6.208,7.6v31.2h-3.1A4.67,4.67,0,0,0,2,90.464v3.1A1.552,1.552,0,0,0,3.552,95.12H93.568a1.552,1.552,0,0,0,1.552-1.552v-3.1a4.67,4.67,0,0,0-4.656-4.656Zm0-38.8a4.656,4.656,0,1,1-9.312,0V45.456h9.312ZM67.184,60.976H29.936a4.67,4.67,0,0,0-4.656,4.656V85.808H12.864v-31.2a7.724,7.724,0,0,0,4.656-3,7.692,7.692,0,0,0,12.416,0,7.692,7.692,0,0,0,12.416,0,7.692,7.692,0,0,0,12.416,0,7.692,7.692,0,0,0,12.416,0,7.692,7.692,0,0,0,12.416,0,7.724,7.724,0,0,0,4.656,3v31.2H71.84V65.632a4.67,4.67,0,0,0-4.656-4.656Zm1.552,4.656V85.808H50.112V64.08H67.184A1.552,1.552,0,0,1,68.736,65.632ZM47.008,64.08V85.808H28.384V65.632a1.552,1.552,0,0,1,1.552-1.552ZM19.072,47.008V45.456h9.312v1.552a4.656,4.656,0,0,1-9.312,0Zm12.416,0V45.456H40.8v1.552a4.656,4.656,0,0,1-9.312,0Zm21.728-1.552v1.552a4.656,4.656,0,0,1-9.312,0V45.456Zm-9.11-3.1L45.27,33.04h6.58l1.164,9.312ZM36.144,29.936v-3.1H60.976v3.1ZM56.32,47.008V45.456h9.312v1.552a4.656,4.656,0,0,1-9.312,0Zm12.416,0V45.456h9.312v1.552a4.656,4.656,0,0,1-9.312,0ZM83.4,33.04l5.82,9.312h-8.66L75.906,33.04Zm-10.973,0,4.656,9.312H68.255L64.763,33.04Zm-7.481,9.312H56.134L54.97,33.04h6.487ZM25.28,23.728a1.552,1.552,0,0,1-1.552-1.552V6.656A1.552,1.552,0,0,1,25.28,5.1H71.84a1.552,1.552,0,0,1,1.552,1.552v15.52a1.552,1.552,0,0,1-1.552,1.552ZM35.663,33.04H42.15l-1.164,9.312H32.171Zm-3.306,0-3.492,9.312H20.034L24.69,33.04Zm-18.64,0h7.5l-4.656,9.312H7.9ZM6.656,47.008V45.456h9.312v1.552a4.656,4.656,0,0,1-9.312,0Zm85.36,45.008H5.1V90.464a1.552,1.552,0,0,1,1.552-1.552H90.464a1.552,1.552,0,0,1,1.552,1.552Z" transform="translate(-2 -2)" fill="#252525"/>
    </g>
  </g>
</svg>
