<svg xmlns="http://www.w3.org/2000/svg" width="23.793" height="24.454" viewBox="0 0 23.793 24.454">
  <g id="unique-views" transform="translate(-209.733 -201.681)">
    <path id="Path_181" data-name="Path 181" d="M247,223.187a1.025,1.025,0,0,1-.533-.149l-5.718-3.475-5.824,3.3a1.025,1.025,0,0,1-1.5-1.127l1.537-6.514-4.936-4.52a1.025,1.025,0,0,1,.608-1.777l6.67-.551,2.774-6.091a1.025,1.025,0,0,1,1.878.029l2.587,6.173,6.65.756a1.025,1.025,0,0,1,.553,1.795l-5.074,4.366,1.336,6.558a1.025,1.025,0,0,1-1,1.23Zm-6.233-5.837a1.025,1.025,0,0,1,.533.149l4.23,2.569-.989-4.849a1.025,1.025,0,0,1,.336-.981l3.751-3.229-4.918-.559a1.025,1.025,0,0,1-.83-.622l-1.91-4.564-2.051,4.5a1.025,1.025,0,0,1-.848.6l-4.932.407,3.648,3.342a1.025,1.025,0,0,1,.305.991l-1.135,4.817,4.307-2.438a1.025,1.025,0,0,1,.5-.133Z" transform="translate(-19.144)" fill="#252525"/>
    <path id="Path_182" data-name="Path 182" d="M303.375,242.68a1.021,1.021,0,0,1-.725-.3l-2.1-2.1A1.025,1.025,0,0,1,302,238.827l2.1,2.1a1.025,1.025,0,0,1-.725,1.749Z" transform="translate(-86.803 -35.336)" fill="#c20ad8"/>
    <path id="Path_183" data-name="Path 183" d="M473.185,680.755a1.025,1.025,0,0,1-1.025-1.025v-2.976a1.025,1.025,0,1,1,2.049,0v2.976A1.025,1.025,0,0,1,473.185,680.755Z" transform="translate(-251.671 -454.62)" fill="#c20ad8"/>
    <path id="Path_184" data-name="Path 184" d="M679.451,538.7a1.02,1.02,0,0,1-.471-.115l-2.641-1.369a1.025,1.025,0,1,1,.943-1.819l2.641,1.369a1.025,1.025,0,0,1-.473,1.935Z" transform="translate(-446.95 -319.926)" fill="#c20ad8"/>
    <path id="Path_185" data-name="Path 185" d="M210.76,538.7a1.025,1.025,0,0,1-.473-1.935l2.642-1.369a1.025,1.025,0,1,1,.943,1.819l-2.642,1.369A1.021,1.021,0,0,1,210.76,538.7Z" transform="translate(0 -319.927)" fill="#c20ad8"/>
    <path id="Path_186" data-name="Path 186" d="M607.429,242.68a1.025,1.025,0,0,1-.725-1.749l2.1-2.1a1.025,1.025,0,0,1,1.449,1.449l-2.1,2.1a1.022,1.022,0,0,1-.725.3Z" transform="translate(-380.413 -35.336)" fill="#c20ad8"/>
  </g>
</svg>
