<svg xmlns="http://www.w3.org/2000/svg" width="28.511" height="18.172" viewBox="0 0 28.511 18.172">
  <g id="views" transform="translate(0 -92.835)">
    <g id="Group_138" data-name="Group 138" transform="translate(0 92.835)">
      <g id="Group_137" data-name="Group 137">
        <path id="Path_187" data-name="Path 187" d="M28.33,101.366c-.255-.348-6.323-8.531-14.074-8.531S.435,101.018.181,101.366a.941.941,0,0,0,0,1.109c.254.348,6.323,8.531,14.074,8.531s13.82-8.183,14.074-8.531A.94.94,0,0,0,28.33,101.366Zm-14.074,7.761c-5.709,0-10.654-5.431-12.118-7.207,1.462-1.777,6.4-7.205,12.118-7.205s10.654,5.43,12.118,7.207C24.911,103.7,19.977,109.127,14.255,109.127Z" transform="translate(0 -92.835)" fill="#252525"/>
      </g>
    </g>
    <g id="Group_140" data-name="Group 140" transform="translate(8.616 96.281)">
      <g id="Group_139" data-name="Group 139">
        <path id="Path_188" data-name="Path 188" d="M160.361,154.725a5.64,5.64,0,1,0,5.64,5.64A5.646,5.646,0,0,0,160.361,154.725Zm0,9.4a3.76,3.76,0,1,1,3.76-3.76A3.764,3.764,0,0,1,160.361,164.124Z" transform="translate(-154.722 -154.725)" fill="#c20ad8"/>
      </g>
    </g>
  </g>
</svg>
