<svg xmlns="http://www.w3.org/2000/svg" width="28.511" height="24.454" viewBox="0 0 28.511 24.454">
  <g id="visits-ico" transform="translate(-17 -73.691)">
    <g id="Layer_4" transform="translate(17 73.691)">
      <g id="Group_133" data-name="Group 133">
        <path id="Path_169" data-name="Path 169" d="M33.857,13.691h-23.2A2.657,2.657,0,0,0,8,16.345v14.31a2.657,2.657,0,0,0,2.654,2.654h7.1l-.829,3.578a1.027,1.027,0,0,0,1,1.259h8.658a1.027,1.027,0,0,0,.983-1.328l-1.072-3.51h7.367a2.657,2.657,0,0,0,2.654-2.654V16.345A2.656,2.656,0,0,0,33.857,13.691ZM18.4,36.739l.8-3.431h5.864a.7.7,0,0,0,.018.185l.991,3.246H18.4ZM35.1,30.654A1.249,1.249,0,0,1,33.857,31.9h-23.2a1.249,1.249,0,0,1-1.247-1.247V16.345A1.249,1.249,0,0,1,10.654,15.1h23.2A1.249,1.249,0,0,1,35.1,16.345v14.31Z" transform="translate(-8 -13.691)" fill="#252525"/>
        <path id="Path_170" data-name="Path 170" d="M27.372,34.322l-3.114.016.016-3.114a.889.889,0,0,0-.258-.628.817.817,0,0,0-.663-.259,4.691,4.691,0,0,0,.084,9.376h.134a4.683,4.683,0,0,0,4.686-4.474.883.883,0,0,0-.886-.919Zm-3.8,3.987h-.094a3.286,3.286,0,0,1-.613-6.494l-.021,3.939,3.937-.02a3.279,3.279,0,0,1-3.209,2.577Z" transform="translate(-15.004 -24.403)" fill="#252525"/>
        <path id="Path_171" data-name="Path 171" d="M37.052,27.057a.874.874,0,0,0-.874.874v3.511h3.511a.887.887,0,0,0,.874-.927A3.474,3.474,0,0,0,37.052,27.057Zm.533,2.978V28.52a2.06,2.06,0,0,1,1.508,1.515Z" transform="translate(-26.136 -22.294)" fill="#c20ad8"/>
        <path id="Path_172" data-name="Path 172" d="M56.107,28.886a.7.7,0,0,0-.7.7v7.736a.7.7,0,1,0,1.406,0V29.589A.7.7,0,0,0,56.107,28.886Z" transform="translate(-38.51 -23.471)" fill="#c20ad8"/>
        <path id="Path_173" data-name="Path 173" d="M64,36.779a.7.7,0,0,0-.7.7V42.4a.7.7,0,1,0,1.406,0V37.482A.7.7,0,0,0,64,36.779Z" transform="translate(-43.59 -28.551)" fill="#c20ad8"/>
        <path id="Path_174" data-name="Path 174" d="M71.894,40.725a.7.7,0,0,0-.7.7v3.516a.7.7,0,1,0,1.406,0V41.428A.7.7,0,0,0,71.894,40.725Z" transform="translate(-48.671 -31.09)" fill="#c20ad8"/>
      </g>
    </g>
  </g>
</svg>
