<svg xmlns="http://www.w3.org/2000/svg" width="38.542" height="50" viewBox="0 0 38.542 50">
  <g id="visits" transform="translate(-58.667)">
    <g id="Group_132" data-name="Group 132" transform="translate(58.667)">
      <path id="Path_167" data-name="Path 167" d="M77.938,0A19.293,19.293,0,0,0,58.667,19.271c0,5.976,3.092,12.917,9.191,20.631A82.042,82.042,0,0,0,76.9,49.609a1.563,1.563,0,0,0,2.068,0A82.042,82.042,0,0,0,88.018,39.9c6.1-7.713,9.191-14.654,9.191-20.631A19.293,19.293,0,0,0,77.938,0Zm0,46.306c-3.713-3.539-16.146-16.2-16.146-27.035a16.146,16.146,0,0,1,32.292,0C94.084,30.107,81.651,42.767,77.938,46.306Z" transform="translate(-58.667)" fill="#fff"/>
      <path id="Path_168" data-name="Path 168" d="M149.781,76.891A12.891,12.891,0,1,0,138.357,89.7,12.905,12.905,0,0,0,149.781,76.891Zm-22.656,0a9.766,9.766,0,1,1,17.633,5.789,8.42,8.42,0,0,0-3.65-4.265,5.467,5.467,0,1,0-8.436,0,8.42,8.42,0,0,0-3.65,4.265A9.715,9.715,0,0,1,127.125,76.891Zm4.46,8.2.13-.565a5.312,5.312,0,0,1,10.351,0l.13.565A9.755,9.755,0,0,1,131.585,85.089Zm2.962-10.151a2.344,2.344,0,1,1,2.344,2.344A2.346,2.346,0,0,1,134.547,74.938Z" transform="translate(-117.62 -57.75)" fill="#fff"/>
    </g>
  </g>
</svg>
